<?xml version="1.0" encoding="iso-8859-1"?>
<!-- Generator: Adobe Illustrator 19.0.0, SVG Export Plug-In . SVG Version: 6.00 Build 0)  -->
<svg version="1.1" id="Capa_1" xmlns="http://www.w3.org/2000/svg" xmlns:xlink="http://www.w3.org/1999/xlink" x="0px" y="0px"
	 viewBox="0 0 480 480" style="enable-background:new 0 0 480 480;" xml:space="preserve">
<g>
	
		<linearGradient id="SVGID_1_" gradientUnits="userSpaceOnUse" x1="-26.875" y1="555.839" x2="-26.875" y2="619.46" gradientTransform="matrix(8 0 0 -8 455 4941)">
		<stop  offset="0" style="stop-color:#006DF0"/>
		<stop  offset="1" style="stop-color:#00E7F0"/>
	</linearGradient>
	<path style="fill:url(#SVGID_1_);" d="M376,480H104c-22.08-0.026-39.974-17.92-40-40V40c0.026-22.08,17.92-39.974,40-40h224
		c2.122,0,4.156,0.844,5.656,2.344l80,80c1.5,1.5,2.344,3.534,2.344,5.656v352C415.974,462.08,398.08,479.974,376,480z M104,16
		c-13.255,0-24,10.745-24,24v400c0,13.255,10.745,24,24,24h272c13.255,0,24-10.745,24-24V91.312L324.688,16L104,16z"/>
	
		<linearGradient id="SVGID_2_" gradientUnits="userSpaceOnUse" x1="-26.875" y1="555.839" x2="-26.875" y2="619.46" gradientTransform="matrix(8 0 0 -8 455 4941)">
		<stop  offset="0" style="stop-color:#006DF0"/>
		<stop  offset="1" style="stop-color:#00E7F0"/>
	</linearGradient>
	<path style="fill:url(#SVGID_2_);" d="M336,240H144c-4.418,0-8,3.582-8,8v160c0,4.418,3.582,8,8,8h192c4.418,0,8-3.582,8-8V248
		C344,243.582,340.418,240,336,240z M328,288h-32v-32h32V288z M280,288h-32v-32h32V288z M232,288h-32v-32h32V288z M216,328
		c0,13.255-10.745,24-24,24h-40v-48h40C205.255,304,216,314.745,216,328z M152,256h32v32h-32V256z M152,368h32v32h-32V368z M200,368
		h32v32h-32V368z M248,400v-32h32v32H248z M296,400v-40c0-4.418-3.582-8-8-8h-64.208c10.941-14.13,10.941-33.87,0-48H328v96H296z"/>
</g>
<g>
</g>
<g>
</g>
<g>
</g>
<g>
</g>
<g>
</g>
<g>
</g>
<g>
</g>
<g>
</g>
<g>
</g>
<g>
</g>
<g>
</g>
<g>
</g>
<g>
</g>
<g>
</g>
<g>
</g>
</svg>
